<svg width="373" height="136" viewBox="0 0 373 136" fill="none" xmlns="http://www.w3.org/2000/svg">
<mask id="mask0_2013_91" style="mask-type:luminance" maskUnits="userSpaceOnUse" x="0" y="0" width="58" height="86">
<path d="M0 0H57.3281V85.9479H0V0Z" fill="white"/>
</mask>
<g mask="url(#mask0_2013_91)">
<path d="M0.0520935 0L28.599 85.6146L56.6667 0H0.0520935Z" fill="#212121"/>
</g>
<mask id="mask1_2013_91" style="mask-type:luminance" maskUnits="userSpaceOnUse" x="45" y="0" width="46" height="136">
<path d="M45.3281 0H90.6615V136H45.3281V0Z" fill="white"/>
</mask>
<g mask="url(#mask1_2013_91)">
<path d="M45.3385 135.891H90.6562V0L45.3385 135.891Z" fill="#212121"/>
</g>
<path d="M146.903 46.5205L135.445 73.0413H129.382L117.945 46.5205H124.57L132.632 65.458L140.82 46.5205H146.903Z" fill="#212121"/>
<path d="M168.184 73.4997C165.434 73.4997 162.954 72.9111 160.746 71.7288C158.538 70.5361 156.809 68.8955 155.559 66.8122C154.309 64.7288 153.684 62.3903 153.684 59.7913C153.684 57.182 154.309 54.833 155.559 52.7497C156.809 50.6663 158.538 49.0361 160.746 47.8538C162.954 46.6768 165.434 46.083 168.184 46.083C170.934 46.083 173.402 46.6768 175.6 47.8538C177.809 49.0361 179.538 50.6663 180.788 52.7497C182.048 54.833 182.684 57.182 182.684 59.7913C182.684 62.3903 182.048 64.7288 180.788 66.8122C179.538 68.8955 177.809 70.5361 175.6 71.7288C173.402 72.9111 170.934 73.4997 168.184 73.4997ZM168.184 68.2705C169.751 68.2705 171.168 67.9111 172.434 67.1872C173.694 66.4684 174.684 65.4684 175.392 64.1872C176.111 62.8955 176.475 61.432 176.475 59.7913C176.475 58.1559 176.111 56.6872 175.392 55.3955C174.684 54.1038 173.694 53.0986 172.434 52.3747C171.168 51.6559 169.751 51.2913 168.184 51.2913C166.611 51.2913 165.194 51.6559 163.934 52.3747C162.684 53.0986 161.694 54.1038 160.975 55.3955C160.251 56.6872 159.892 58.1559 159.892 59.7913C159.892 61.432 160.251 62.8955 160.975 64.1872C161.694 65.4684 162.684 66.4684 163.934 67.1872C165.194 67.9111 166.611 68.2705 168.184 68.2705Z" fill="#212121"/>
<path d="M209.696 73.0413L203.279 63.833L197.008 73.0413H189.946L199.758 59.5622L190.446 46.5205H197.425L203.508 55.1247L209.508 46.5205H216.133L206.883 59.333L216.779 73.0413H209.696Z" fill="#212121"/>
<path d="M246.223 68.1247V73.0413H225.702V46.5205H245.744V51.458H231.807V57.208H244.098V61.9788H231.807V68.1247H246.223Z" fill="#212121"/>
<path d="M256.789 46.5205H262.914V68.0413H276.227V73.0413H256.789V46.5205Z" fill="#212121"/>
<path d="M285.339 46.5205H291.464V68.0413H304.777V73.0413H285.339V46.5205Z" fill="#212121"/>
<path d="M331.348 67.3538H319.035L316.681 73.0413H310.41L322.223 46.5205H328.285L340.139 73.0413H333.702L331.348 67.3538ZM329.41 62.708L325.202 52.5413L321.014 62.708H329.41Z" fill="#212121"/>
<path d="M368.031 59.2497C369.542 59.7393 370.729 60.5413 371.594 61.6663C372.453 62.7913 372.886 64.1768 372.886 65.8122C372.886 68.1351 371.979 69.9163 370.177 71.1663C368.37 72.4163 365.74 73.0413 362.281 73.0413H348.573V46.5205H361.531C364.75 46.5205 367.224 47.1455 368.948 48.3955C370.682 49.6351 371.552 51.307 371.552 53.4163C371.552 54.708 371.24 55.8643 370.615 56.8747C370 57.8747 369.141 58.6663 368.031 59.2497ZM354.677 51.1455V57.3955H360.761C362.271 57.3955 363.417 57.1351 364.198 56.6038C364.99 56.0778 365.386 55.2913 365.386 54.2497C365.386 53.2236 364.99 52.4528 364.198 51.9372C363.417 51.4111 362.271 51.1455 360.761 51.1455H354.677ZM361.823 68.4163C363.448 68.4163 364.667 68.1559 365.49 67.6247C366.307 67.0986 366.719 66.2809 366.719 65.1663C366.719 62.9736 365.084 61.8747 361.823 61.8747H354.677V68.4163H361.823Z" fill="#212121"/>
<path d="M175.613 83.6667H171.717V81.8125H181.675V83.6667H177.779V93.5417H175.613V83.6667Z" fill="#212121"/>
<path d="M193.066 91.7083V93.5417H184.274V81.8125H192.816V83.6458H186.441V86.6875H192.108V88.4792H186.441V91.7083H193.066Z" fill="#212121"/>
<path d="M201.866 93.708C200.684 93.708 199.616 93.4528 198.658 92.9372C197.699 92.4111 196.949 91.6872 196.408 90.7705C195.866 89.8538 195.595 88.8278 195.595 87.6872C195.595 86.5361 195.866 85.4997 196.408 84.583C196.96 83.6663 197.72 82.9528 198.679 82.4372C199.637 81.9111 200.705 81.6455 201.887 81.6455C202.845 81.6455 203.72 81.8122 204.512 82.1455C205.304 82.4788 205.975 82.9684 206.533 83.6038L205.116 84.9372C204.267 84.0205 203.225 83.5622 201.991 83.5622C201.184 83.5622 200.46 83.7393 199.824 84.083C199.184 84.432 198.684 84.9268 198.324 85.5622C197.975 86.1872 197.804 86.8955 197.804 87.6872C197.804 88.4788 197.975 89.1872 198.324 89.8122C198.684 90.4372 199.184 90.9268 199.824 91.2705C200.46 91.6195 201.184 91.7913 201.991 91.7913C203.225 91.7913 204.267 91.333 205.116 90.4163L206.533 91.7497C205.975 92.3903 205.293 92.8747 204.491 93.208C203.699 93.5413 202.824 93.708 201.866 93.708Z" fill="#212121"/>
<path d="M219.996 81.8125V93.5417H217.808V88.5208H211.746V93.5417H209.579V81.8125H211.746V86.6667H217.808V81.8125H219.996Z" fill="#212121"/>
<path d="M234.515 81.8125V93.5417H232.724L226.245 85.6042V93.5417H224.099V81.8125H225.89L232.349 89.75V81.8125H234.515Z" fill="#212121"/>
<path d="M244.077 93.708C242.879 93.708 241.806 93.4528 240.847 92.9372C239.889 92.4111 239.129 91.6872 238.577 90.7705C238.035 89.8538 237.764 88.8278 237.764 87.6872C237.764 86.5518 238.035 85.5205 238.577 84.6038C239.129 83.6768 239.889 82.9528 240.847 82.4372C241.806 81.9111 242.879 81.6455 244.077 81.6455C245.285 81.6455 246.368 81.9111 247.327 82.4372C248.285 82.9528 249.035 83.6663 249.577 84.583C250.129 85.4997 250.41 86.5361 250.41 87.6872C250.41 88.8278 250.129 89.8538 249.577 90.7705C249.035 91.6872 248.285 92.4111 247.327 92.9372C246.368 93.4528 245.285 93.708 244.077 93.708ZM244.077 91.7913C244.868 91.7913 245.577 91.6195 246.202 91.2705C246.827 90.9268 247.311 90.4372 247.66 89.8122C248.019 89.1768 248.202 88.4684 248.202 87.6872C248.202 86.8955 248.019 86.1872 247.66 85.5622C247.311 84.9268 246.827 84.432 246.202 84.083C245.577 83.7393 244.868 83.5622 244.077 83.5622C243.295 83.5622 242.597 83.7393 241.972 84.083C241.347 84.432 240.853 84.9268 240.493 85.5622C240.144 86.1872 239.972 86.8955 239.972 87.6872C239.972 88.4684 240.144 89.1768 240.493 89.8122C240.853 90.4372 241.347 90.9268 241.972 91.2705C242.597 91.6195 243.295 91.7913 244.077 91.7913Z" fill="#212121"/>
<path d="M253.674 81.8125H255.84V91.7083H261.965V93.5417H253.674V81.8125Z" fill="#212121"/>
<path d="M270.118 93.708C268.92 93.708 267.848 93.4528 266.889 92.9372C265.931 92.4111 265.17 91.6872 264.618 90.7705C264.077 89.8538 263.806 88.8278 263.806 87.6872C263.806 86.5518 264.077 85.5205 264.618 84.6038C265.17 83.6768 265.931 82.9528 266.889 82.4372C267.848 81.9111 268.92 81.6455 270.118 81.6455C271.327 81.6455 272.41 81.9111 273.368 82.4372C274.327 82.9528 275.077 83.6663 275.618 84.583C276.17 85.4997 276.452 86.5361 276.452 87.6872C276.452 88.8278 276.17 89.8538 275.618 90.7705C275.077 91.6872 274.327 92.4111 273.368 92.9372C272.41 93.4528 271.327 93.708 270.118 93.708ZM270.118 91.7913C270.91 91.7913 271.618 91.6195 272.243 91.2705C272.868 90.9268 273.353 90.4372 273.702 89.8122C274.061 89.1768 274.243 88.4684 274.243 87.6872C274.243 86.8955 274.061 86.1872 273.702 85.5622C273.353 84.9268 272.868 84.432 272.243 84.083C271.618 83.7393 270.91 83.5622 270.118 83.5622C269.337 83.5622 268.639 83.7393 268.014 84.083C267.389 84.432 266.894 84.9268 266.535 85.5622C266.186 86.1872 266.014 86.8955 266.014 87.6872C266.014 88.4684 266.186 89.1768 266.535 89.8122C266.894 90.4372 267.389 90.9268 268.014 91.2705C268.639 91.6195 269.337 91.7913 270.118 91.7913Z" fill="#212121"/>
<path d="M287.715 87.5413H289.778V92.208C289.163 92.6976 288.455 93.0726 287.653 93.333C286.861 93.583 286.033 93.708 285.174 93.708C283.976 93.708 282.903 93.4528 281.945 92.9372C280.986 92.4111 280.226 91.6872 279.674 90.7705C279.132 89.8538 278.861 88.8278 278.861 87.6872C278.861 86.5361 279.132 85.4997 279.674 84.583C280.226 83.6663 280.986 82.9528 281.945 82.4372C282.913 81.9111 284.007 81.6455 285.215 81.6455C286.2 81.6455 287.096 81.8122 287.903 82.1455C288.705 82.4684 289.382 82.9372 289.924 83.5622L288.549 84.8955C287.658 84.0101 286.58 83.5622 285.32 83.5622C284.486 83.5622 283.747 83.7393 283.111 84.083C282.471 84.432 281.971 84.9163 281.611 85.5413C281.247 86.1663 281.07 86.8851 281.07 87.6872C281.07 88.4684 281.247 89.1663 281.611 89.7913C281.971 90.4163 282.471 90.9111 283.111 91.2705C283.747 91.6195 284.476 91.7913 285.299 91.7913C286.215 91.7913 287.018 91.5934 287.715 91.1872V87.5413Z" fill="#212121"/>
<path d="M293.599 81.8125H295.765V93.5417H293.599V81.8125Z" fill="#212121"/>
<path d="M308.688 91.7083V93.5417H299.896V81.8125H308.438V83.6458H302.063V86.6875H307.73V88.4792H302.063V91.7083H308.688Z" fill="#212121"/>
<path d="M315.696 93.708C314.79 93.708 313.915 93.583 313.071 93.333C312.238 93.0726 311.571 92.7288 311.071 92.3122L311.821 90.6038C312.306 90.9945 312.894 91.307 313.592 91.5413C314.285 91.7809 314.988 91.8955 315.696 91.8955C316.571 91.8955 317.222 91.7601 317.655 91.4788C318.082 91.2028 318.301 90.833 318.301 90.3747C318.301 90.0413 318.176 89.7705 317.926 89.5622C317.686 89.3434 317.384 89.1663 317.009 89.0413C316.644 88.9163 316.144 88.7809 315.509 88.6247C314.618 88.4059 313.894 88.1872 313.342 87.9788C312.785 87.7705 312.306 87.4476 311.905 86.9997C311.514 86.5413 311.321 85.9268 311.321 85.1455C311.321 84.5101 311.493 83.9268 311.842 83.3955C312.202 82.8538 312.738 82.432 313.446 82.1247C314.155 81.807 315.019 81.6455 316.051 81.6455C316.759 81.6455 317.457 81.7393 318.155 81.9163C318.847 82.0986 319.446 82.3538 319.946 82.6872L319.259 84.3747C318.743 84.083 318.207 83.8643 317.655 83.708C317.097 83.5413 316.556 83.458 316.03 83.458C315.165 83.458 314.53 83.6038 314.113 83.8955C313.696 84.1872 313.488 84.5726 313.488 85.0413C313.488 85.3747 313.603 85.6559 313.842 85.8747C314.077 86.083 314.384 86.2497 314.759 86.3747C315.134 86.4997 315.634 86.6403 316.259 86.7913C317.134 86.9893 317.847 87.1976 318.405 87.4163C318.957 87.6403 319.436 87.9736 319.842 88.4163C320.243 88.8643 320.446 89.4684 320.446 90.2288C320.446 90.8695 320.264 91.4528 319.905 91.9788C319.556 92.5101 319.019 92.932 318.301 93.2497C317.592 93.5518 316.722 93.708 315.696 93.708Z" fill="#212121"/>
</svg>
